<svg width="22" height="19" viewBox="0 0 22 19" fill="none" xmlns="http://www.w3.org/2000/svg">
<path d="M20.2363 9.78586C22.4755 7.54338 22.4755 3.90213 20.2363 1.68186C17.997 -0.560619 14.361 -0.560619 12.1218 1.68186L11.0354 2.792L9.94901 1.70406C7.70976 -0.560619 4.07374 -0.560619 1.85666 1.68186C0.770289 2.76979 0.193848 4.21297 0.193848 5.74496C0.193848 7.27695 0.79246 8.72013 1.85666 9.80806L11.0354 19L20.2363 9.78586ZM1.61278 5.74496C1.61278 4.59042 2.0562 3.52469 2.87652 2.72539C3.71901 1.88168 4.80538 1.45983 5.89175 1.45983C6.97812 1.45983 8.06449 1.88168 8.90699 2.72539L11.0354 4.83465L13.1638 2.70318C14.8266 1.03798 17.5536 1.03798 19.1943 2.70318C19.9924 3.50248 20.458 4.56822 20.458 5.72276C20.458 6.8773 20.0146 7.94303 19.1943 8.74233L11.0354 16.9351L2.87652 8.76453C2.07837 7.94303 1.61278 6.8773 1.61278 5.74496Z" fill="black"/>
</svg>
